<svg xmlns="http://www.w3.org/2000/svg" viewBox="0 0 200 150" width="200" height="150">
  <ellipse cx="100" cy="142" rx="30" ry="4" fill="#000" opacity=".08"/>
  <rect x="88" y="10" width="24" height="12" rx="3" fill="#9AA1AB"/>
  <rect x="97" y="22" width="6" height="34" rx="2" fill="#C9CDD3"/>
  <g fill="none" stroke="#D6251C" stroke-width="5" stroke-linecap="round">
    <path d="M72 48q28 10 56 0M72 60q28 10 56 0M72 72q28 10 56 0M72 84q28 10 56 0M72 96q28 10 56 0"/>
  </g>
  <rect x="86" y="70" width="28" height="56" rx="5" fill="#2F343C" stroke="#6B7380" stroke-width="1.5"/>
  <rect x="92" y="76" width="4" height="44" rx="2" fill="#fff" opacity=".14"/>
  <circle cx="100" cy="134" r="8" fill="#9AA1AB"/><circle cx="100" cy="134" r="3" fill="#2F343C"/>
</svg>
